# xmcd
#
# Track frame offsets:
#	150
#	14400
#	28562
#	41912
#	55374
#	69068
#	84604
#	98408
#	112352
#	126655
#	140698
#	154613
#	167481
#	181638
#	195587
#	209124
#	222802
#	236274
#	247749
#	260993
#	273976
#	288194
#	300943
#	315054
#
# Disc length: 4386 seconds
#
# Revision: 0
# Processed by: cddbd v1.5.1PL2 Copyright (c) Steve Scherf et al.
# Submitted via: audiograbber 1.83.01
#
DISCID=4c112018
DTITLE=Charley Patton - Voice of the Delta [CD1]
DYEAR=2004
DGENRE=Blues
TTITLE0=Mississippi boll weevil blues
TTITLE1=Screamin and hollerin the blues
TTITLE2=Down the dirt road blues
TTITLE3=Pony blues
TTITLE4=Banty rooster blues
TTITLE5=It won't be long
TTITLE6=Pea vine blues
TTITLE7=Tom Rushen blues
TTITLE8=A spoonful blues
TTITLE9=Shake it and break it
TTITLE10=Prayer of death (Part 1)
TTITLE11=Prayer of death (Part 2)
TTITLE12=Lord I'm discouraged
TTITLE13=I'm goin home
TTITLE14=Going to move to Alabama
TTITLE15=Elder greene blues (take 1)
TTITLE16=Elder greene blues (take 2)
TTITLE17=Circle round the moon
TTITLE18=Devil sent the rain blues
TTITLE19=Mean black cat blues
TTITLE20=Frankie and Albert
TTITLE21=Some these days I'll be gone (take 1)
TTITLE22=Some these days I'll be gone (take 2)
TTITLE23=Green river blues
EXTD=
EXTT0=
EXTT1=
EXTT2=
EXTT3=
EXTT4=
EXTT5=
EXTT6=
EXTT7=
EXTT8=
EXTT9=
EXTT10=
EXTT11=
EXTT12=
EXTT13=
EXTT14=
EXTT15=
EXTT16=
EXTT17=
EXTT18=
EXTT19=
EXTT20=
EXTT21=
EXTT22=
EXTT23=
PLAYORDER=
